<?xml version="1.0" encoding="utf-8" standalone="no"?>
<!DOCTYPE svg PUBLIC "-//W3C//DTD SVG 1.1//EN"
  "http://www.w3.org/Graphics/SVG/1.1/DTD/svg11.dtd">
<svg xmlns:xlink="http://www.w3.org/1999/xlink" width="592.214986pt" height="406.484817pt" viewBox="0 0 592.214986 406.484817" xmlns="http://www.w3.org/2000/svg" version="1.1">
 <metadata>
  <rdf:RDF xmlns:dc="http://purl.org/dc/elements/1.1/" xmlns:cc="http://creativecommons.org/ns#" xmlns:rdf="http://www.w3.org/1999/02/22-rdf-syntax-ns#">
   <cc:Work>
    <dc:type rdf:resource="http://purl.org/dc/dcmitype/StillImage"/>
    <dc:date>2025-12-16T12:23:31.829418</dc:date>
    <dc:format>image/svg+xml</dc:format>
    <dc:creator>
     <cc:Agent>
      <dc:title>Matplotlib v3.10.7, https://matplotlib.org/</dc:title>
     </cc:Agent>
    </dc:creator>
   </cc:Work>
  </rdf:RDF>
 </metadata>
 <defs>
  <style type="text/css">*{stroke-linejoin: round; stroke-linecap: butt}</style>
 </defs>
 <g id="figure_1">
  <g id="patch_1">
   <path d="M 0 406.484817 
L 592.214986 406.484817 
L 592.214986 0 
L 0 0 
z
" style="fill: #ffffff"/>
  </g>
  <g id="axes_1">
   <g id="patch_2">
    <path d="M 117.156719 372.235442 
L 585.014986 372.235442 
L 585.014986 18.518906 
L 117.156719 18.518906 
z
" style="fill: #ffffff"/>
   </g>
   <g id="matplotlib.axis_1">
    <g id="xtick_1">
     <g id="line2d_1">
      <path d="M 152.57948 372.235442 
L 152.57948 18.518906 
" clip-path="url(#p41f2b12067)" style="fill: none; stroke: #cccccc; stroke-linecap: round"/>
     </g>
     <g id="text_1">
      <!-- −0.2 -->
      <g style="fill: #262626" transform="translate(144.080496 387.054348) scale(0.07 -0.07)">
       <defs>
        <path id="DejaVuSans-2212" d="M 678 2272 
L 4684 2272 
L 4684 1741 
L 678 1741 
L 678 2272 
z
" transform="scale(0.015625)"/>
        <path id="DejaVuSans-30" d="M 2034 4250 
Q 1547 4250 1301 3770 
Q 1056 3291 1056 2328 
Q 1056 1369 1301 889 
Q 1547 409 2034 409 
Q 2525 409 2770 889 
Q 3016 1369 3016 2328 
Q 3016 3291 2770 3770 
Q 2525 4250 2034 4250 
z
M 2034 4750 
Q 2819 4750 3233 4129 
Q 3647 3509 3647 2328 
Q 3647 1150 3233 529 
Q 2819 -91 2034 -91 
Q 1250 -91 836 529 
Q 422 1150 422 2328 
Q 422 3509 836 4129 
Q 1250 4750 2034 4750 
z
" transform="scale(0.015625)"/>
        <path id="DejaVuSans-2e" d="M 684 794 
L 1344 794 
L 1344 0 
L 684 0 
L 684 794 
z
" transform="scale(0.015625)"/>
        <path id="DejaVuSans-32" d="M 1228 531 
L 3431 531 
L 3431 0 
L 469 0 
L 469 531 
Q 828 903 1448 1529 
Q 2069 2156 2228 2338 
Q 2531 2678 2651 2914 
Q 2772 3150 2772 3378 
Q 2772 3750 2511 3984 
Q 2250 4219 1831 4219 
Q 1534 4219 1204 4116 
Q 875 4013 500 3803 
L 500 4441 
Q 881 4594 1212 4672 
Q 1544 4750 1819 4750 
Q 2544 4750 2975 4387 
Q 3406 4025 3406 3419 
Q 3406 3131 3298 2873 
Q 3191 2616 2906 2266 
Q 2828 2175 2409 1742 
Q 1991 1309 1228 531 
z
" transform="scale(0.015625)"/>
       </defs>
       <use xlink:href="#DejaVuSans-2212"/>
       <use xlink:href="#DejaVuSans-30" transform="translate(83.789062 0)"/>
       <use xlink:href="#DejaVuSans-2e" transform="translate(147.412109 0)"/>
       <use xlink:href="#DejaVuSans-32" transform="translate(179.199219 0)"/>
      </g>
     </g>
    </g>
    <g id="xtick_2">
     <g id="line2d_2">
      <path d="M 208.914408 372.235442 
L 208.914408 18.518906 
" clip-path="url(#p41f2b12067)" style="fill: none; stroke: #cccccc; stroke-linecap: round"/>
     </g>
     <g id="text_2">
      <!-- 0.0 -->
      <g style="fill: #262626" transform="translate(203.348314 387.054348) scale(0.07 -0.07)">
       <use xlink:href="#DejaVuSans-30"/>
       <use xlink:href="#DejaVuSans-2e" transform="translate(63.623047 0)"/>
       <use xlink:href="#DejaVuSans-30" transform="translate(95.410156 0)"/>
      </g>
     </g>
    </g>
    <g id="xtick_3">
     <g id="line2d_3">
      <path d="M 265.249336 372.235442 
L 265.249336 18.518906 
" clip-path="url(#p41f2b12067)" style="fill: none; stroke: #cccccc; stroke-linecap: round"/>
     </g>
     <g id="text_3">
      <!-- 0.2 -->
      <g style="fill: #262626" transform="translate(259.683242 387.054348) scale(0.07 -0.07)">
       <use xlink:href="#DejaVuSans-30"/>
       <use xlink:href="#DejaVuSans-2e" transform="translate(63.623047 0)"/>
       <use xlink:href="#DejaVuSans-32" transform="translate(95.410156 0)"/>
      </g>
     </g>
    </g>
    <g id="xtick_4">
     <g id="line2d_4">
      <path d="M 321.584264 372.235442 
L 321.584264 18.518906 
" clip-path="url(#p41f2b12067)" style="fill: none; stroke: #cccccc; stroke-linecap: round"/>
     </g>
     <g id="text_4">
      <!-- 0.4 -->
      <g style="fill: #262626" transform="translate(316.01817 387.054348) scale(0.07 -0.07)">
       <defs>
        <path id="DejaVuSans-34" d="M 2419 4116 
L 825 1625 
L 2419 1625 
L 2419 4116 
z
M 2253 4666 
L 3047 4666 
L 3047 1625 
L 3713 1625 
L 3713 1100 
L 3047 1100 
L 3047 0 
L 2419 0 
L 2419 1100 
L 313 1100 
L 313 1709 
L 2253 4666 
z
" transform="scale(0.015625)"/>
       </defs>
       <use xlink:href="#DejaVuSans-30"/>
       <use xlink:href="#DejaVuSans-2e" transform="translate(63.623047 0)"/>
       <use xlink:href="#DejaVuSans-34" transform="translate(95.410156 0)"/>
      </g>
     </g>
    </g>
    <g id="xtick_5">
     <g id="line2d_5">
      <path d="M 377.919192 372.235442 
L 377.919192 18.518906 
" clip-path="url(#p41f2b12067)" style="fill: none; stroke: #cccccc; stroke-linecap: round"/>
     </g>
     <g id="text_5">
      <!-- 0.6 -->
      <g style="fill: #262626" transform="translate(372.353098 387.054348) scale(0.07 -0.07)">
       <defs>
        <path id="DejaVuSans-36" d="M 2113 2584 
Q 1688 2584 1439 2293 
Q 1191 2003 1191 1497 
Q 1191 994 1439 701 
Q 1688 409 2113 409 
Q 2538 409 2786 701 
Q 3034 994 3034 1497 
Q 3034 2003 2786 2293 
Q 2538 2584 2113 2584 
z
M 3366 4563 
L 3366 3988 
Q 3128 4100 2886 4159 
Q 2644 4219 2406 4219 
Q 1781 4219 1451 3797 
Q 1122 3375 1075 2522 
Q 1259 2794 1537 2939 
Q 1816 3084 2150 3084 
Q 2853 3084 3261 2657 
Q 3669 2231 3669 1497 
Q 3669 778 3244 343 
Q 2819 -91 2113 -91 
Q 1303 -91 875 529 
Q 447 1150 447 2328 
Q 447 3434 972 4092 
Q 1497 4750 2381 4750 
Q 2619 4750 2861 4703 
Q 3103 4656 3366 4563 
z
" transform="scale(0.015625)"/>
       </defs>
       <use xlink:href="#DejaVuSans-30"/>
       <use xlink:href="#DejaVuSans-2e" transform="translate(63.623047 0)"/>
       <use xlink:href="#DejaVuSans-36" transform="translate(95.410156 0)"/>
      </g>
     </g>
    </g>
    <g id="xtick_6">
     <g id="line2d_6">
      <path d="M 434.25412 372.235442 
L 434.25412 18.518906 
" clip-path="url(#p41f2b12067)" style="fill: none; stroke: #cccccc; stroke-linecap: round"/>
     </g>
     <g id="text_6">
      <!-- 0.8 -->
      <g style="fill: #262626" transform="translate(428.688026 387.054348) scale(0.07 -0.07)">
       <defs>
        <path id="DejaVuSans-38" d="M 2034 2216 
Q 1584 2216 1326 1975 
Q 1069 1734 1069 1313 
Q 1069 891 1326 650 
Q 1584 409 2034 409 
Q 2484 409 2743 651 
Q 3003 894 3003 1313 
Q 3003 1734 2745 1975 
Q 2488 2216 2034 2216 
z
M 1403 2484 
Q 997 2584 770 2862 
Q 544 3141 544 3541 
Q 544 4100 942 4425 
Q 1341 4750 2034 4750 
Q 2731 4750 3128 4425 
Q 3525 4100 3525 3541 
Q 3525 3141 3298 2862 
Q 3072 2584 2669 2484 
Q 3125 2378 3379 2068 
Q 3634 1759 3634 1313 
Q 3634 634 3220 271 
Q 2806 -91 2034 -91 
Q 1263 -91 848 271 
Q 434 634 434 1313 
Q 434 1759 690 2068 
Q 947 2378 1403 2484 
z
M 1172 3481 
Q 1172 3119 1398 2916 
Q 1625 2713 2034 2713 
Q 2441 2713 2670 2916 
Q 2900 3119 2900 3481 
Q 2900 3844 2670 4047 
Q 2441 4250 2034 4250 
Q 1625 4250 1398 4047 
Q 1172 3844 1172 3481 
z
" transform="scale(0.015625)"/>
       </defs>
       <use xlink:href="#DejaVuSans-30"/>
       <use xlink:href="#DejaVuSans-2e" transform="translate(63.623047 0)"/>
       <use xlink:href="#DejaVuSans-38" transform="translate(95.410156 0)"/>
      </g>
     </g>
    </g>
    <g id="xtick_7">
     <g id="line2d_7">
      <path d="M 490.589048 372.235442 
L 490.589048 18.518906 
" clip-path="url(#p41f2b12067)" style="fill: none; stroke: #cccccc; stroke-linecap: round"/>
     </g>
     <g id="text_7">
      <!-- 1.0 -->
      <g style="fill: #262626" transform="translate(485.022954 387.054348) scale(0.07 -0.07)">
       <defs>
        <path id="DejaVuSans-31" d="M 794 531 
L 1825 531 
L 1825 4091 
L 703 3866 
L 703 4441 
L 1819 4666 
L 2450 4666 
L 2450 531 
L 3481 531 
L 3481 0 
L 794 0 
L 794 531 
z
" transform="scale(0.015625)"/>
       </defs>
       <use xlink:href="#DejaVuSans-31"/>
       <use xlink:href="#DejaVuSans-2e" transform="translate(63.623047 0)"/>
       <use xlink:href="#DejaVuSans-30" transform="translate(95.410156 0)"/>
      </g>
     </g>
    </g>
    <g id="xtick_8">
     <g id="line2d_8">
      <path d="M 546.923976 372.235442 
L 546.923976 18.518906 
" clip-path="url(#p41f2b12067)" style="fill: none; stroke: #cccccc; stroke-linecap: round"/>
     </g>
     <g id="text_8">
      <!-- 1.2 -->
      <g style="fill: #262626" transform="translate(541.357882 387.054348) scale(0.07 -0.07)">
       <use xlink:href="#DejaVuSans-31"/>
       <use xlink:href="#DejaVuSans-2e" transform="translate(63.623047 0)"/>
       <use xlink:href="#DejaVuSans-32" transform="translate(95.410156 0)"/>
      </g>
     </g>
    </g>
    <g id="text_9">
     <!-- Score -->
     <g style="fill: #262626" transform="translate(341.284212 397.829035) scale(0.07 -0.07)">
      <defs>
       <path id="DejaVuSans-53" d="M 3425 4513 
L 3425 3897 
Q 3066 4069 2747 4153 
Q 2428 4238 2131 4238 
Q 1616 4238 1336 4038 
Q 1056 3838 1056 3469 
Q 1056 3159 1242 3001 
Q 1428 2844 1947 2747 
L 2328 2669 
Q 3034 2534 3370 2195 
Q 3706 1856 3706 1288 
Q 3706 609 3251 259 
Q 2797 -91 1919 -91 
Q 1588 -91 1214 -16 
Q 841 59 441 206 
L 441 856 
Q 825 641 1194 531 
Q 1563 422 1919 422 
Q 2459 422 2753 634 
Q 3047 847 3047 1241 
Q 3047 1584 2836 1778 
Q 2625 1972 2144 2069 
L 1759 2144 
Q 1053 2284 737 2584 
Q 422 2884 422 3419 
Q 422 4038 858 4394 
Q 1294 4750 2059 4750 
Q 2388 4750 2728 4690 
Q 3069 4631 3425 4513 
z
" transform="scale(0.015625)"/>
       <path id="DejaVuSans-63" d="M 3122 3366 
L 3122 2828 
Q 2878 2963 2633 3030 
Q 2388 3097 2138 3097 
Q 1578 3097 1268 2742 
Q 959 2388 959 1747 
Q 959 1106 1268 751 
Q 1578 397 2138 397 
Q 2388 397 2633 464 
Q 2878 531 3122 666 
L 3122 134 
Q 2881 22 2623 -34 
Q 2366 -91 2075 -91 
Q 1284 -91 818 406 
Q 353 903 353 1747 
Q 353 2603 823 3093 
Q 1294 3584 2113 3584 
Q 2378 3584 2631 3529 
Q 2884 3475 3122 3366 
z
" transform="scale(0.015625)"/>
       <path id="DejaVuSans-6f" d="M 1959 3097 
Q 1497 3097 1228 2736 
Q 959 2375 959 1747 
Q 959 1119 1226 758 
Q 1494 397 1959 397 
Q 2419 397 2687 759 
Q 2956 1122 2956 1747 
Q 2956 2369 2687 2733 
Q 2419 3097 1959 3097 
z
M 1959 3584 
Q 2709 3584 3137 3096 
Q 3566 2609 3566 1747 
Q 3566 888 3137 398 
Q 2709 -91 1959 -91 
Q 1206 -91 779 398 
Q 353 888 353 1747 
Q 353 2609 779 3096 
Q 1206 3584 1959 3584 
z
" transform="scale(0.015625)"/>
       <path id="DejaVuSans-72" d="M 2631 2963 
Q 2534 3019 2420 3045 
Q 2306 3072 2169 3072 
Q 1681 3072 1420 2755 
Q 1159 2438 1159 1844 
L 1159 0 
L 581 0 
L 581 3500 
L 1159 3500 
L 1159 2956 
Q 1341 3275 1631 3429 
Q 1922 3584 2338 3584 
Q 2397 3584 2469 3576 
Q 2541 3569 2628 3553 
L 2631 2963 
z
" transform="scale(0.015625)"/>
       <path id="DejaVuSans-65" d="M 3597 1894 
L 3597 1613 
L 953 1613 
Q 991 1019 1311 708 
Q 1631 397 2203 397 
Q 2534 397 2845 478 
Q 3156 559 3463 722 
L 3463 178 
Q 3153 47 2828 -22 
Q 2503 -91 2169 -91 
Q 1331 -91 842 396 
Q 353 884 353 1716 
Q 353 2575 817 3079 
Q 1281 3584 2069 3584 
Q 2775 3584 3186 3129 
Q 3597 2675 3597 1894 
z
M 3022 2063 
Q 3016 2534 2758 2815 
Q 2500 3097 2075 3097 
Q 1594 3097 1305 2825 
Q 1016 2553 972 2059 
L 3022 2063 
z
" transform="scale(0.015625)"/>
      </defs>
      <use xlink:href="#DejaVuSans-53"/>
      <use xlink:href="#DejaVuSans-63" transform="translate(63.476562 0)"/>
      <use xlink:href="#DejaVuSans-6f" transform="translate(118.457031 0)"/>
      <use xlink:href="#DejaVuSans-72" transform="translate(179.638672 0)"/>
      <use xlink:href="#DejaVuSans-65" transform="translate(218.501953 0)"/>
     </g>
    </g>
   </g>
   <g id="matplotlib.axis_2">
    <g id="ytick_1">
     <g id="text_10">
      <!-- Lasso -->
      <g style="fill: #262626" transform="translate(87.890469 43.285643) scale(0.07 -0.07)">
       <defs>
        <path id="DejaVuSans-4c" d="M 628 4666 
L 1259 4666 
L 1259 531 
L 3531 531 
L 3531 0 
L 628 0 
L 628 4666 
z
" transform="scale(0.015625)"/>
        <path id="DejaVuSans-61" d="M 2194 1759 
Q 1497 1759 1228 1600 
Q 959 1441 959 1056 
Q 959 750 1161 570 
Q 1363 391 1709 391 
Q 2188 391 2477 730 
Q 2766 1069 2766 1631 
L 2766 1759 
L 2194 1759 
z
M 3341 1997 
L 3341 0 
L 2766 0 
L 2766 531 
Q 2569 213 2275 61 
Q 1981 -91 1556 -91 
Q 1019 -91 701 211 
Q 384 513 384 1019 
Q 384 1609 779 1909 
Q 1175 2209 1959 2209 
L 2766 2209 
L 2766 2266 
Q 2766 2663 2505 2880 
Q 2244 3097 1772 3097 
Q 1472 3097 1187 3025 
Q 903 2953 641 2809 
L 641 3341 
Q 956 3463 1253 3523 
Q 1550 3584 1831 3584 
Q 2591 3584 2966 3190 
Q 3341 2797 3341 1997 
z
" transform="scale(0.015625)"/>
        <path id="DejaVuSans-73" d="M 2834 3397 
L 2834 2853 
Q 2591 2978 2328 3040 
Q 2066 3103 1784 3103 
Q 1356 3103 1142 2972 
Q 928 2841 928 2578 
Q 928 2378 1081 2264 
Q 1234 2150 1697 2047 
L 1894 2003 
Q 2506 1872 2764 1633 
Q 3022 1394 3022 966 
Q 3022 478 2636 193 
Q 2250 -91 1575 -91 
Q 1294 -91 989 -36 
Q 684 19 347 128 
L 347 722 
Q 666 556 975 473 
Q 1284 391 1588 391 
Q 1994 391 2212 530 
Q 2431 669 2431 922 
Q 2431 1156 2273 1281 
Q 2116 1406 1581 1522 
L 1381 1569 
Q 847 1681 609 1914 
Q 372 2147 372 2553 
Q 372 3047 722 3315 
Q 1072 3584 1716 3584 
Q 2034 3584 2315 3537 
Q 2597 3491 2834 3397 
z
" transform="scale(0.015625)"/>
       </defs>
       <use xlink:href="#DejaVuSans-4c"/>
       <use xlink:href="#DejaVuSans-61" transform="translate(55.712891 0)"/>
       <use xlink:href="#DejaVuSans-73" transform="translate(116.992188 0)"/>
       <use xlink:href="#DejaVuSans-73" transform="translate(169.091797 0)"/>
       <use xlink:href="#DejaVuSans-6f" transform="translate(221.191406 0)"/>
      </g>
     </g>
    </g>
    <g id="ytick_2">
     <g id="text_11">
      <!-- Random Forest Regressor -->
      <g style="fill: #262626" transform="translate(17.974688 87.50021) scale(0.07 -0.07)">
       <defs>
        <path id="DejaVuSans-52" d="M 2841 2188 
Q 3044 2119 3236 1894 
Q 3428 1669 3622 1275 
L 4263 0 
L 3584 0 
L 2988 1197 
Q 2756 1666 2539 1819 
Q 2322 1972 1947 1972 
L 1259 1972 
L 1259 0 
L 628 0 
L 628 4666 
L 2053 4666 
Q 2853 4666 3247 4331 
Q 3641 3997 3641 3322 
Q 3641 2881 3436 2590 
Q 3231 2300 2841 2188 
z
M 1259 4147 
L 1259 2491 
L 2053 2491 
Q 2509 2491 2742 2702 
Q 2975 2913 2975 3322 
Q 2975 3731 2742 3939 
Q 2509 4147 2053 4147 
L 1259 4147 
z
" transform="scale(0.015625)"/>
        <path id="DejaVuSans-6e" d="M 3513 2113 
L 3513 0 
L 2938 0 
L 2938 2094 
Q 2938 2591 2744 2837 
Q 2550 3084 2163 3084 
Q 1697 3084 1428 2787 
Q 1159 2491 1159 1978 
L 1159 0 
L 581 0 
L 581 3500 
L 1159 3500 
L 1159 2956 
Q 1366 3272 1645 3428 
Q 1925 3584 2291 3584 
Q 2894 3584 3203 3211 
Q 3513 2838 3513 2113 
z
" transform="scale(0.015625)"/>
        <path id="DejaVuSans-64" d="M 2906 2969 
L 2906 4863 
L 3481 4863 
L 3481 0 
L 2906 0 
L 2906 525 
Q 2725 213 2448 61 
Q 2172 -91 1784 -91 
Q 1150 -91 751 415 
Q 353 922 353 1747 
Q 353 2572 751 3078 
Q 1150 3584 1784 3584 
Q 2172 3584 2448 3432 
Q 2725 3281 2906 2969 
z
M 947 1747 
Q 947 1113 1208 752 
Q 1469 391 1925 391 
Q 2381 391 2643 752 
Q 2906 1113 2906 1747 
Q 2906 2381 2643 2742 
Q 2381 3103 1925 3103 
Q 1469 3103 1208 2742 
Q 947 2381 947 1747 
z
" transform="scale(0.015625)"/>
        <path id="DejaVuSans-6d" d="M 3328 2828 
Q 3544 3216 3844 3400 
Q 4144 3584 4550 3584 
Q 5097 3584 5394 3201 
Q 5691 2819 5691 2113 
L 5691 0 
L 5113 0 
L 5113 2094 
Q 5113 2597 4934 2840 
Q 4756 3084 4391 3084 
Q 3944 3084 3684 2787 
Q 3425 2491 3425 1978 
L 3425 0 
L 2847 0 
L 2847 2094 
Q 2847 2600 2669 2842 
Q 2491 3084 2119 3084 
Q 1678 3084 1418 2786 
Q 1159 2488 1159 1978 
L 1159 0 
L 581 0 
L 581 3500 
L 1159 3500 
L 1159 2956 
Q 1356 3278 1631 3431 
Q 1906 3584 2284 3584 
Q 2666 3584 2933 3390 
Q 3200 3197 3328 2828 
z
" transform="scale(0.015625)"/>
        <path id="DejaVuSans-20" transform="scale(0.015625)"/>
        <path id="DejaVuSans-46" d="M 628 4666 
L 3309 4666 
L 3309 4134 
L 1259 4134 
L 1259 2759 
L 3109 2759 
L 3109 2228 
L 1259 2228 
L 1259 0 
L 628 0 
L 628 4666 
z
" transform="scale(0.015625)"/>
        <path id="DejaVuSans-74" d="M 1172 4494 
L 1172 3500 
L 2356 3500 
L 2356 3053 
L 1172 3053 
L 1172 1153 
Q 1172 725 1289 603 
Q 1406 481 1766 481 
L 2356 481 
L 2356 0 
L 1766 0 
Q 1100 0 847 248 
Q 594 497 594 1153 
L 594 3053 
L 172 3053 
L 172 3500 
L 594 3500 
L 594 4494 
L 1172 4494 
z
" transform="scale(0.015625)"/>
        <path id="DejaVuSans-67" d="M 2906 1791 
Q 2906 2416 2648 2759 
Q 2391 3103 1925 3103 
Q 1463 3103 1205 2759 
Q 947 2416 947 1791 
Q 947 1169 1205 825 
Q 1463 481 1925 481 
Q 2391 481 2648 825 
Q 2906 1169 2906 1791 
z
M 3481 434 
Q 3481 -459 3084 -895 
Q 2688 -1331 1869 -1331 
Q 1566 -1331 1297 -1286 
Q 1028 -1241 775 -1147 
L 775 -588 
Q 1028 -725 1275 -790 
Q 1522 -856 1778 -856 
Q 2344 -856 2625 -561 
Q 2906 -266 2906 331 
L 2906 616 
Q 2728 306 2450 153 
Q 2172 0 1784 0 
Q 1141 0 747 490 
Q 353 981 353 1791 
Q 353 2603 747 3093 
Q 1141 3584 1784 3584 
Q 2172 3584 2450 3431 
Q 2728 3278 2906 2969 
L 2906 3500 
L 3481 3500 
L 3481 434 
z
" transform="scale(0.015625)"/>
       </defs>
       <use xlink:href="#DejaVuSans-52"/>
       <use xlink:href="#DejaVuSans-61" transform="translate(67.232422 0)"/>
       <use xlink:href="#DejaVuSans-6e" transform="translate(128.511719 0)"/>
       <use xlink:href="#DejaVuSans-64" transform="translate(191.890625 0)"/>
       <use xlink:href="#DejaVuSans-6f" transform="translate(255.367188 0)"/>
       <use xlink:href="#DejaVuSans-6d" transform="translate(316.548828 0)"/>
       <use xlink:href="#DejaVuSans-20" transform="translate(413.960938 0)"/>
       <use xlink:href="#DejaVuSans-46" transform="translate(445.748047 0)"/>
       <use xlink:href="#DejaVuSans-6f" transform="translate(499.642578 0)"/>
       <use xlink:href="#DejaVuSans-72" transform="translate(560.824219 0)"/>
       <use xlink:href="#DejaVuSans-65" transform="translate(599.6875 0)"/>
       <use xlink:href="#DejaVuSans-73" transform="translate(661.210938 0)"/>
       <use xlink:href="#DejaVuSans-74" transform="translate(713.310547 0)"/>
       <use xlink:href="#DejaVuSans-20" transform="translate(752.519531 0)"/>
       <use xlink:href="#DejaVuSans-52" transform="translate(784.306641 0)"/>
       <use xlink:href="#DejaVuSans-65" transform="translate(849.289062 0)"/>
       <use xlink:href="#DejaVuSans-67" transform="translate(910.8125 0)"/>
       <use xlink:href="#DejaVuSans-72" transform="translate(974.289062 0)"/>
       <use xlink:href="#DejaVuSans-65" transform="translate(1013.152344 0)"/>
       <use xlink:href="#DejaVuSans-73" transform="translate(1074.675781 0)"/>
       <use xlink:href="#DejaVuSans-73" transform="translate(1126.775391 0)"/>
       <use xlink:href="#DejaVuSans-6f" transform="translate(1178.875 0)"/>
       <use xlink:href="#DejaVuSans-72" transform="translate(1240.056641 0)"/>
      </g>
     </g>
    </g>
    <g id="ytick_3">
     <g id="text_12">
      <!-- Ridge -->
      <g style="fill: #262626" transform="translate(87.653125 131.714777) scale(0.07 -0.07)">
       <defs>
        <path id="DejaVuSans-69" d="M 603 3500 
L 1178 3500 
L 1178 0 
L 603 0 
L 603 3500 
z
M 603 4863 
L 1178 4863 
L 1178 4134 
L 603 4134 
L 603 4863 
z
" transform="scale(0.015625)"/>
       </defs>
       <use xlink:href="#DejaVuSans-52"/>
       <use xlink:href="#DejaVuSans-69" transform="translate(69.482422 0)"/>
       <use xlink:href="#DejaVuSans-64" transform="translate(97.265625 0)"/>
       <use xlink:href="#DejaVuSans-67" transform="translate(160.742188 0)"/>
       <use xlink:href="#DejaVuSans-65" transform="translate(224.21875 0)"/>
      </g>
     </g>
    </g>
    <g id="ytick_4">
     <g id="text_13">
      <!-- Linear Regression -->
      <g style="fill: #262626" transform="translate(45.391719 175.929344) scale(0.07 -0.07)">
       <use xlink:href="#DejaVuSans-4c"/>
       <use xlink:href="#DejaVuSans-69" transform="translate(55.712891 0)"/>
       <use xlink:href="#DejaVuSans-6e" transform="translate(83.496094 0)"/>
       <use xlink:href="#DejaVuSans-65" transform="translate(146.875 0)"/>
       <use xlink:href="#DejaVuSans-61" transform="translate(208.398438 0)"/>
       <use xlink:href="#DejaVuSans-72" transform="translate(269.677734 0)"/>
       <use xlink:href="#DejaVuSans-20" transform="translate(310.791016 0)"/>
       <use xlink:href="#DejaVuSans-52" transform="translate(342.578125 0)"/>
       <use xlink:href="#DejaVuSans-65" transform="translate(407.560547 0)"/>
       <use xlink:href="#DejaVuSans-67" transform="translate(469.083984 0)"/>
       <use xlink:href="#DejaVuSans-72" transform="translate(532.560547 0)"/>
       <use xlink:href="#DejaVuSans-65" transform="translate(571.423828 0)"/>
       <use xlink:href="#DejaVuSans-73" transform="translate(632.947266 0)"/>
       <use xlink:href="#DejaVuSans-73" transform="translate(685.046875 0)"/>
       <use xlink:href="#DejaVuSans-69" transform="translate(737.146484 0)"/>
       <use xlink:href="#DejaVuSans-6f" transform="translate(764.929688 0)"/>
       <use xlink:href="#DejaVuSans-6e" transform="translate(826.111328 0)"/>
      </g>
     </g>
    </g>
    <g id="ytick_5">
     <g id="text_14">
      <!-- SVR -->
      <g style="fill: #262626" transform="translate(93.560469 220.143911) scale(0.07 -0.07)">
       <defs>
        <path id="DejaVuSans-56" d="M 1831 0 
L 50 4666 
L 709 4666 
L 2188 738 
L 3669 4666 
L 4325 4666 
L 2547 0 
L 1831 0 
z
" transform="scale(0.015625)"/>
       </defs>
       <use xlink:href="#DejaVuSans-53"/>
       <use xlink:href="#DejaVuSans-56" transform="translate(63.476562 0)"/>
       <use xlink:href="#DejaVuSans-52" transform="translate(131.884766 0)"/>
      </g>
     </g>
    </g>
    <g id="ytick_6">
     <g id="text_15">
      <!-- LightGBM Regressor -->
      <g style="fill: #262626" transform="translate(36.915156 264.358477) scale(0.07 -0.07)">
       <defs>
        <path id="DejaVuSans-68" d="M 3513 2113 
L 3513 0 
L 2938 0 
L 2938 2094 
Q 2938 2591 2744 2837 
Q 2550 3084 2163 3084 
Q 1697 3084 1428 2787 
Q 1159 2491 1159 1978 
L 1159 0 
L 581 0 
L 581 4863 
L 1159 4863 
L 1159 2956 
Q 1366 3272 1645 3428 
Q 1925 3584 2291 3584 
Q 2894 3584 3203 3211 
Q 3513 2838 3513 2113 
z
" transform="scale(0.015625)"/>
        <path id="DejaVuSans-47" d="M 3809 666 
L 3809 1919 
L 2778 1919 
L 2778 2438 
L 4434 2438 
L 4434 434 
Q 4069 175 3628 42 
Q 3188 -91 2688 -91 
Q 1594 -91 976 548 
Q 359 1188 359 2328 
Q 359 3472 976 4111 
Q 1594 4750 2688 4750 
Q 3144 4750 3555 4637 
Q 3966 4525 4313 4306 
L 4313 3634 
Q 3963 3931 3569 4081 
Q 3175 4231 2741 4231 
Q 1884 4231 1454 3753 
Q 1025 3275 1025 2328 
Q 1025 1384 1454 906 
Q 1884 428 2741 428 
Q 3075 428 3337 486 
Q 3600 544 3809 666 
z
" transform="scale(0.015625)"/>
        <path id="DejaVuSans-42" d="M 1259 2228 
L 1259 519 
L 2272 519 
Q 2781 519 3026 730 
Q 3272 941 3272 1375 
Q 3272 1813 3026 2020 
Q 2781 2228 2272 2228 
L 1259 2228 
z
M 1259 4147 
L 1259 2741 
L 2194 2741 
Q 2656 2741 2882 2914 
Q 3109 3088 3109 3444 
Q 3109 3797 2882 3972 
Q 2656 4147 2194 4147 
L 1259 4147 
z
M 628 4666 
L 2241 4666 
Q 2963 4666 3353 4366 
Q 3744 4066 3744 3513 
Q 3744 3084 3544 2831 
Q 3344 2578 2956 2516 
Q 3422 2416 3680 2098 
Q 3938 1781 3938 1306 
Q 3938 681 3513 340 
Q 3088 0 2303 0 
L 628 0 
L 628 4666 
z
" transform="scale(0.015625)"/>
        <path id="DejaVuSans-4d" d="M 628 4666 
L 1569 4666 
L 2759 1491 
L 3956 4666 
L 4897 4666 
L 4897 0 
L 4281 0 
L 4281 4097 
L 3078 897 
L 2444 897 
L 1241 4097 
L 1241 0 
L 628 0 
L 628 4666 
z
" transform="scale(0.015625)"/>
       </defs>
       <use xlink:href="#DejaVuSans-4c"/>
       <use xlink:href="#DejaVuSans-69" transform="translate(55.712891 0)"/>
       <use xlink:href="#DejaVuSans-67" transform="translate(83.496094 0)"/>
       <use xlink:href="#DejaVuSans-68" transform="translate(146.972656 0)"/>
       <use xlink:href="#DejaVuSans-74" transform="translate(210.351562 0)"/>
       <use xlink:href="#DejaVuSans-47" transform="translate(249.560547 0)"/>
       <use xlink:href="#DejaVuSans-42" transform="translate(327.050781 0)"/>
       <use xlink:href="#DejaVuSans-4d" transform="translate(395.654297 0)"/>
       <use xlink:href="#DejaVuSans-20" transform="translate(481.933594 0)"/>
       <use xlink:href="#DejaVuSans-52" transform="translate(513.720703 0)"/>
       <use xlink:href="#DejaVuSans-65" transform="translate(578.703125 0)"/>
       <use xlink:href="#DejaVuSans-67" transform="translate(640.226562 0)"/>
       <use xlink:href="#DejaVuSans-72" transform="translate(703.703125 0)"/>
       <use xlink:href="#DejaVuSans-65" transform="translate(742.566406 0)"/>
       <use xlink:href="#DejaVuSans-73" transform="translate(804.089844 0)"/>
       <use xlink:href="#DejaVuSans-73" transform="translate(856.189453 0)"/>
       <use xlink:href="#DejaVuSans-6f" transform="translate(908.289062 0)"/>
       <use xlink:href="#DejaVuSans-72" transform="translate(969.470703 0)"/>
      </g>
     </g>
    </g>
    <g id="ytick_7">
     <g id="text_16">
      <!-- XGBoost Regressor -->
      <g style="fill: #262626" transform="translate(40.672188 308.573044) scale(0.07 -0.07)">
       <defs>
        <path id="DejaVuSans-58" d="M 403 4666 
L 1081 4666 
L 2241 2931 
L 3406 4666 
L 4084 4666 
L 2584 2425 
L 4184 0 
L 3506 0 
L 2194 1984 
L 872 0 
L 191 0 
L 1856 2491 
L 403 4666 
z
" transform="scale(0.015625)"/>
       </defs>
       <use xlink:href="#DejaVuSans-58"/>
       <use xlink:href="#DejaVuSans-47" transform="translate(68.505859 0)"/>
       <use xlink:href="#DejaVuSans-42" transform="translate(145.996094 0)"/>
       <use xlink:href="#DejaVuSans-6f" transform="translate(214.599609 0)"/>
       <use xlink:href="#DejaVuSans-6f" transform="translate(275.78125 0)"/>
       <use xlink:href="#DejaVuSans-73" transform="translate(336.962891 0)"/>
       <use xlink:href="#DejaVuSans-74" transform="translate(389.0625 0)"/>
       <use xlink:href="#DejaVuSans-20" transform="translate(428.271484 0)"/>
       <use xlink:href="#DejaVuSans-52" transform="translate(460.058594 0)"/>
       <use xlink:href="#DejaVuSans-65" transform="translate(525.041016 0)"/>
       <use xlink:href="#DejaVuSans-67" transform="translate(586.564453 0)"/>
       <use xlink:href="#DejaVuSans-72" transform="translate(650.041016 0)"/>
       <use xlink:href="#DejaVuSans-65" transform="translate(688.904297 0)"/>
       <use xlink:href="#DejaVuSans-73" transform="translate(750.427734 0)"/>
       <use xlink:href="#DejaVuSans-73" transform="translate(802.527344 0)"/>
       <use xlink:href="#DejaVuSans-6f" transform="translate(854.626953 0)"/>
       <use xlink:href="#DejaVuSans-72" transform="translate(915.808594 0)"/>
      </g>
     </g>
    </g>
    <g id="ytick_8">
     <g id="text_17">
      <!-- KNN Regressor -->
      <g style="fill: #262626" transform="translate(55.586563 352.787611) scale(0.07 -0.07)">
       <defs>
        <path id="DejaVuSans-4b" d="M 628 4666 
L 1259 4666 
L 1259 2694 
L 3353 4666 
L 4166 4666 
L 1850 2491 
L 4331 0 
L 3500 0 
L 1259 2247 
L 1259 0 
L 628 0 
L 628 4666 
z
" transform="scale(0.015625)"/>
        <path id="DejaVuSans-4e" d="M 628 4666 
L 1478 4666 
L 3547 763 
L 3547 4666 
L 4159 4666 
L 4159 0 
L 3309 0 
L 1241 3903 
L 1241 0 
L 628 0 
L 628 4666 
z
" transform="scale(0.015625)"/>
       </defs>
       <use xlink:href="#DejaVuSans-4b"/>
       <use xlink:href="#DejaVuSans-4e" transform="translate(65.576172 0)"/>
       <use xlink:href="#DejaVuSans-4e" transform="translate(140.380859 0)"/>
       <use xlink:href="#DejaVuSans-20" transform="translate(215.185547 0)"/>
       <use xlink:href="#DejaVuSans-52" transform="translate(246.972656 0)"/>
       <use xlink:href="#DejaVuSans-65" transform="translate(311.955078 0)"/>
       <use xlink:href="#DejaVuSans-67" transform="translate(373.478516 0)"/>
       <use xlink:href="#DejaVuSans-72" transform="translate(436.955078 0)"/>
       <use xlink:href="#DejaVuSans-65" transform="translate(475.818359 0)"/>
       <use xlink:href="#DejaVuSans-73" transform="translate(537.341797 0)"/>
       <use xlink:href="#DejaVuSans-73" transform="translate(589.441406 0)"/>
       <use xlink:href="#DejaVuSans-6f" transform="translate(641.541016 0)"/>
       <use xlink:href="#DejaVuSans-72" transform="translate(702.722656 0)"/>
      </g>
     </g>
    </g>
    <g id="text_18">
     <!-- Model -->
     <g style="fill: #262626" transform="translate(12.518906 205.886471) rotate(-90) scale(0.07 -0.07)">
      <defs>
       <path id="DejaVuSans-6c" d="M 603 4863 
L 1178 4863 
L 1178 0 
L 603 0 
L 603 4863 
z
" transform="scale(0.015625)"/>
      </defs>
      <use xlink:href="#DejaVuSans-4d"/>
      <use xlink:href="#DejaVuSans-6f" transform="translate(86.279297 0)"/>
      <use xlink:href="#DejaVuSans-64" transform="translate(147.460938 0)"/>
      <use xlink:href="#DejaVuSans-65" transform="translate(210.9375 0)"/>
      <use xlink:href="#DejaVuSans-6c" transform="translate(272.460938 0)"/>
     </g>
    </g>
   </g>
   <g id="patch_3">
    <path d="M 208.914408 22.940363 
L 208.193085 22.940363 
L 208.193085 40.62619 
L 208.914408 40.62619 
z
" clip-path="url(#p41f2b12067)" style="fill: #3c6682; stroke: #ffffff; stroke-linejoin: miter"/>
   </g>
   <g id="patch_4">
    <path d="M 208.914408 67.15493 
L 205.69296 67.15493 
L 205.69296 84.840757 
L 208.914408 84.840757 
z
" clip-path="url(#p41f2b12067)" style="fill: #3c6682; stroke: #ffffff; stroke-linejoin: miter"/>
   </g>
   <g id="patch_5">
    <path d="M 208.914408 111.369497 
L 205.55322 111.369497 
L 205.55322 129.055324 
L 208.914408 129.055324 
z
" clip-path="url(#p41f2b12067)" style="fill: #3c6682; stroke: #ffffff; stroke-linejoin: miter"/>
   </g>
   <g id="patch_6">
    <path d="M 208.914408 155.584064 
L 204.998019 155.584064 
L 204.998019 173.269891 
L 208.914408 173.269891 
z
" clip-path="url(#p41f2b12067)" style="fill: #3c6682; stroke: #ffffff; stroke-linejoin: miter"/>
   </g>
   <g id="patch_7">
    <path d="M 208.914408 199.798631 
L 190.386145 199.798631 
L 190.386145 217.484457 
L 208.914408 217.484457 
z
" clip-path="url(#p41f2b12067)" style="fill: #3c6682; stroke: #ffffff; stroke-linejoin: miter"/>
   </g>
   <g id="patch_8">
    <path d="M 208.914408 244.013198 
L 176.517544 244.013198 
L 176.517544 261.699024 
L 208.914408 261.699024 
z
" clip-path="url(#p41f2b12067)" style="fill: #3c6682; stroke: #ffffff; stroke-linejoin: miter"/>
   </g>
   <g id="patch_9">
    <path d="M 208.914408 288.227765 
L 167.548008 288.227765 
L 167.548008 305.913591 
L 208.914408 305.913591 
z
" clip-path="url(#p41f2b12067)" style="fill: #3c6682; stroke: #ffffff; stroke-linejoin: miter"/>
   </g>
   <g id="patch_10">
    <path d="M 208.914408 332.442331 
L 138.423004 332.442331 
L 138.423004 350.128158 
L 208.914408 350.128158 
z
" clip-path="url(#p41f2b12067)" style="fill: #3c6682; stroke: #ffffff; stroke-linejoin: miter"/>
   </g>
   <g id="patch_11">
    <path d="M 208.914408 40.62619 
L 526.661137 40.62619 
L 526.661137 58.312016 
L 208.914408 58.312016 
z
" clip-path="url(#p41f2b12067)" style="fill: #45a778; stroke: #ffffff; stroke-linejoin: miter"/>
   </g>
   <g id="patch_12">
    <path d="M 208.914408 84.840757 
L 528.064585 84.840757 
L 528.064585 102.526583 
L 208.914408 102.526583 
z
" clip-path="url(#p41f2b12067)" style="fill: #45a778; stroke: #ffffff; stroke-linejoin: miter"/>
   </g>
   <g id="patch_13">
    <path d="M 208.914408 129.055324 
L 528.142846 129.055324 
L 528.142846 146.74115 
L 208.914408 146.74115 
z
" clip-path="url(#p41f2b12067)" style="fill: #45a778; stroke: #ffffff; stroke-linejoin: miter"/>
   </g>
   <g id="patch_14">
    <path d="M 208.914408 173.269891 
L 528.453596 173.269891 
L 528.453596 190.955717 
L 208.914408 190.955717 
z
" clip-path="url(#p41f2b12067)" style="fill: #45a778; stroke: #ffffff; stroke-linejoin: miter"/>
   </g>
   <g id="patch_15">
    <path d="M 208.914408 217.484457 
L 536.526023 217.484457 
L 536.526023 235.170284 
L 208.914408 235.170284 
z
" clip-path="url(#p41f2b12067)" style="fill: #45a778; stroke: #ffffff; stroke-linejoin: miter"/>
   </g>
   <g id="patch_16">
    <path d="M 208.914408 261.699024 
L 544.007993 261.699024 
L 544.007993 279.384851 
L 208.914408 279.384851 
z
" clip-path="url(#p41f2b12067)" style="fill: #45a778; stroke: #ffffff; stroke-linejoin: miter"/>
   </g>
   <g id="patch_17">
    <path d="M 208.914408 305.913591 
L 548.759261 305.913591 
L 548.759261 323.599418 
L 208.914408 323.599418 
z
" clip-path="url(#p41f2b12067)" style="fill: #45a778; stroke: #ffffff; stroke-linejoin: miter"/>
   </g>
   <g id="patch_18">
    <path d="M 208.914408 350.128158 
L 563.748702 350.128158 
L 563.748702 367.813985 
L 208.914408 367.813985 
z
" clip-path="url(#p41f2b12067)" style="fill: #45a778; stroke: #ffffff; stroke-linejoin: miter"/>
   </g>
   <g id="patch_19">
    <path d="M 208.914408 40.62619 
L 208.914408 40.62619 
L 208.914408 40.62619 
L 208.914408 40.62619 
z
" clip-path="url(#p41f2b12067)" style="fill: #3c6682; stroke: #ffffff; stroke-linejoin: miter"/>
   </g>
   <g id="patch_20">
    <path d="M 208.914408 40.62619 
L 208.914408 40.62619 
L 208.914408 40.62619 
L 208.914408 40.62619 
z
" clip-path="url(#p41f2b12067)" style="fill: #45a778; stroke: #ffffff; stroke-linejoin: miter"/>
   </g>
   <g id="line2d_9">
    <path clip-path="url(#p41f2b12067)" style="fill: none; stroke: #424242; stroke-width: 2.25; stroke-linecap: round"/>
   </g>
   <g id="line2d_10">
    <path clip-path="url(#p41f2b12067)" style="fill: none; stroke: #424242; stroke-width: 2.25; stroke-linecap: round"/>
   </g>
   <g id="line2d_11">
    <path clip-path="url(#p41f2b12067)" style="fill: none; stroke: #424242; stroke-width: 2.25; stroke-linecap: round"/>
   </g>
   <g id="line2d_12">
    <path clip-path="url(#p41f2b12067)" style="fill: none; stroke: #424242; stroke-width: 2.25; stroke-linecap: round"/>
   </g>
   <g id="line2d_13">
    <path clip-path="url(#p41f2b12067)" style="fill: none; stroke: #424242; stroke-width: 2.25; stroke-linecap: round"/>
   </g>
   <g id="line2d_14">
    <path clip-path="url(#p41f2b12067)" style="fill: none; stroke: #424242; stroke-width: 2.25; stroke-linecap: round"/>
   </g>
   <g id="line2d_15">
    <path clip-path="url(#p41f2b12067)" style="fill: none; stroke: #424242; stroke-width: 2.25; stroke-linecap: round"/>
   </g>
   <g id="line2d_16">
    <path clip-path="url(#p41f2b12067)" style="fill: none; stroke: #424242; stroke-width: 2.25; stroke-linecap: round"/>
   </g>
   <g id="line2d_17">
    <path clip-path="url(#p41f2b12067)" style="fill: none; stroke: #424242; stroke-width: 2.25; stroke-linecap: round"/>
   </g>
   <g id="line2d_18">
    <path clip-path="url(#p41f2b12067)" style="fill: none; stroke: #424242; stroke-width: 2.25; stroke-linecap: round"/>
   </g>
   <g id="line2d_19">
    <path clip-path="url(#p41f2b12067)" style="fill: none; stroke: #424242; stroke-width: 2.25; stroke-linecap: round"/>
   </g>
   <g id="line2d_20">
    <path clip-path="url(#p41f2b12067)" style="fill: none; stroke: #424242; stroke-width: 2.25; stroke-linecap: round"/>
   </g>
   <g id="line2d_21">
    <path clip-path="url(#p41f2b12067)" style="fill: none; stroke: #424242; stroke-width: 2.25; stroke-linecap: round"/>
   </g>
   <g id="line2d_22">
    <path clip-path="url(#p41f2b12067)" style="fill: none; stroke: #424242; stroke-width: 2.25; stroke-linecap: round"/>
   </g>
   <g id="line2d_23">
    <path clip-path="url(#p41f2b12067)" style="fill: none; stroke: #424242; stroke-width: 2.25; stroke-linecap: round"/>
   </g>
   <g id="line2d_24">
    <path clip-path="url(#p41f2b12067)" style="fill: none; stroke: #424242; stroke-width: 2.25; stroke-linecap: round"/>
   </g>
   <g id="patch_21">
    <path d="M 117.156719 372.235442 
L 117.156719 18.518906 
" style="fill: none; stroke: #cccccc; stroke-width: 1.25; stroke-linejoin: miter; stroke-linecap: square"/>
   </g>
   <g id="patch_22">
    <path d="M 585.014986 372.235442 
L 585.014986 18.518906 
" style="fill: none; stroke: #cccccc; stroke-width: 1.25; stroke-linejoin: miter; stroke-linecap: square"/>
   </g>
   <g id="patch_23">
    <path d="M 117.156719 372.235442 
L 585.014986 372.235442 
" style="fill: none; stroke: #cccccc; stroke-width: 1.25; stroke-linejoin: miter; stroke-linecap: square"/>
   </g>
   <g id="patch_24">
    <path d="M 117.156719 18.518906 
L 585.014986 18.518906 
" style="fill: none; stroke: #cccccc; stroke-width: 1.25; stroke-linejoin: miter; stroke-linecap: square"/>
   </g>
   <g id="text_19">
    <!-- Model Performance Comparison -->
    <g style="fill: #262626" transform="translate(295.218743 12.518906) scale(0.07 -0.07)">
     <defs>
      <path id="DejaVuSans-50" d="M 1259 4147 
L 1259 2394 
L 2053 2394 
Q 2494 2394 2734 2622 
Q 2975 2850 2975 3272 
Q 2975 3691 2734 3919 
Q 2494 4147 2053 4147 
L 1259 4147 
z
M 628 4666 
L 2053 4666 
Q 2838 4666 3239 4311 
Q 3641 3956 3641 3272 
Q 3641 2581 3239 2228 
Q 2838 1875 2053 1875 
L 1259 1875 
L 1259 0 
L 628 0 
L 628 4666 
z
" transform="scale(0.015625)"/>
      <path id="DejaVuSans-66" d="M 2375 4863 
L 2375 4384 
L 1825 4384 
Q 1516 4384 1395 4259 
Q 1275 4134 1275 3809 
L 1275 3500 
L 2222 3500 
L 2222 3053 
L 1275 3053 
L 1275 0 
L 697 0 
L 697 3053 
L 147 3053 
L 147 3500 
L 697 3500 
L 697 3744 
Q 697 4328 969 4595 
Q 1241 4863 1831 4863 
L 2375 4863 
z
" transform="scale(0.015625)"/>
      <path id="DejaVuSans-43" d="M 4122 4306 
L 4122 3641 
Q 3803 3938 3442 4084 
Q 3081 4231 2675 4231 
Q 1875 4231 1450 3742 
Q 1025 3253 1025 2328 
Q 1025 1406 1450 917 
Q 1875 428 2675 428 
Q 3081 428 3442 575 
Q 3803 722 4122 1019 
L 4122 359 
Q 3791 134 3420 21 
Q 3050 -91 2638 -91 
Q 1578 -91 968 557 
Q 359 1206 359 2328 
Q 359 3453 968 4101 
Q 1578 4750 2638 4750 
Q 3056 4750 3426 4639 
Q 3797 4528 4122 4306 
z
" transform="scale(0.015625)"/>
      <path id="DejaVuSans-70" d="M 1159 525 
L 1159 -1331 
L 581 -1331 
L 581 3500 
L 1159 3500 
L 1159 2969 
Q 1341 3281 1617 3432 
Q 1894 3584 2278 3584 
Q 2916 3584 3314 3078 
Q 3713 2572 3713 1747 
Q 3713 922 3314 415 
Q 2916 -91 2278 -91 
Q 1894 -91 1617 61 
Q 1341 213 1159 525 
z
M 3116 1747 
Q 3116 2381 2855 2742 
Q 2594 3103 2138 3103 
Q 1681 3103 1420 2742 
Q 1159 2381 1159 1747 
Q 1159 1113 1420 752 
Q 1681 391 2138 391 
Q 2594 391 2855 752 
Q 3116 1113 3116 1747 
z
" transform="scale(0.015625)"/>
     </defs>
     <use xlink:href="#DejaVuSans-4d"/>
     <use xlink:href="#DejaVuSans-6f" transform="translate(86.279297 0)"/>
     <use xlink:href="#DejaVuSans-64" transform="translate(147.460938 0)"/>
     <use xlink:href="#DejaVuSans-65" transform="translate(210.9375 0)"/>
     <use xlink:href="#DejaVuSans-6c" transform="translate(272.460938 0)"/>
     <use xlink:href="#DejaVuSans-20" transform="translate(300.244141 0)"/>
     <use xlink:href="#DejaVuSans-50" transform="translate(332.03125 0)"/>
     <use xlink:href="#DejaVuSans-65" transform="translate(388.708984 0)"/>
     <use xlink:href="#DejaVuSans-72" transform="translate(450.232422 0)"/>
     <use xlink:href="#DejaVuSans-66" transform="translate(491.345703 0)"/>
     <use xlink:href="#DejaVuSans-6f" transform="translate(526.550781 0)"/>
     <use xlink:href="#DejaVuSans-72" transform="translate(587.732422 0)"/>
     <use xlink:href="#DejaVuSans-6d" transform="translate(627.095703 0)"/>
     <use xlink:href="#DejaVuSans-61" transform="translate(724.507812 0)"/>
     <use xlink:href="#DejaVuSans-6e" transform="translate(785.787109 0)"/>
     <use xlink:href="#DejaVuSans-63" transform="translate(849.166016 0)"/>
     <use xlink:href="#DejaVuSans-65" transform="translate(904.146484 0)"/>
     <use xlink:href="#DejaVuSans-20" transform="translate(965.669922 0)"/>
     <use xlink:href="#DejaVuSans-43" transform="translate(997.457031 0)"/>
     <use xlink:href="#DejaVuSans-6f" transform="translate(1067.28125 0)"/>
     <use xlink:href="#DejaVuSans-6d" transform="translate(1128.462891 0)"/>
     <use xlink:href="#DejaVuSans-70" transform="translate(1225.875 0)"/>
     <use xlink:href="#DejaVuSans-61" transform="translate(1289.351562 0)"/>
     <use xlink:href="#DejaVuSans-72" transform="translate(1350.630859 0)"/>
     <use xlink:href="#DejaVuSans-69" transform="translate(1391.744141 0)"/>
     <use xlink:href="#DejaVuSans-73" transform="translate(1419.527344 0)"/>
     <use xlink:href="#DejaVuSans-6f" transform="translate(1471.626953 0)"/>
     <use xlink:href="#DejaVuSans-6e" transform="translate(1532.808594 0)"/>
    </g>
   </g>
   <g id="legend_1">
    <g id="patch_25">
     <path d="M 442.507018 59.782031 
L 580.114986 59.782031 
Q 581.514986 59.782031 581.514986 58.382031 
L 581.514986 23.418906 
Q 581.514986 22.018906 580.114986 22.018906 
L 442.507018 22.018906 
Q 441.107018 22.018906 441.107018 23.418906 
L 441.107018 58.382031 
Q 441.107018 59.782031 442.507018 59.782031 
z
" style="fill: #ffffff; opacity: 0.8; stroke: #cccccc; stroke-linejoin: miter"/>
    </g>
    <g id="text_20">
     <!-- Metric -->
     <g style="fill: #262626" transform="translate(492.657565 33.937031) scale(0.12 -0.12)">
      <use xlink:href="#DejaVuSans-4d"/>
      <use xlink:href="#DejaVuSans-65" transform="translate(86.279297 0)"/>
      <use xlink:href="#DejaVuSans-74" transform="translate(147.802734 0)"/>
      <use xlink:href="#DejaVuSans-72" transform="translate(187.011719 0)"/>
      <use xlink:href="#DejaVuSans-69" transform="translate(228.125 0)"/>
      <use xlink:href="#DejaVuSans-63" transform="translate(255.908203 0)"/>
     </g>
    </g>
    <g id="patch_26">
     <path d="M 443.907018 45.251562 
L 457.907018 45.251562 
L 457.907018 40.351562 
L 443.907018 40.351562 
z
" style="fill: #3c6682; stroke: #ffffff; stroke-linejoin: miter"/>
    </g>
    <g id="text_21">
     <!-- R-squared (R²) -->
     <g style="fill: #262626" transform="translate(463.507018 45.251562) scale(0.07 -0.07)">
      <defs>
       <path id="DejaVuSans-2d" d="M 313 2009 
L 1997 2009 
L 1997 1497 
L 313 1497 
L 313 2009 
z
" transform="scale(0.015625)"/>
       <path id="DejaVuSans-71" d="M 947 1747 
Q 947 1113 1208 752 
Q 1469 391 1925 391 
Q 2381 391 2643 752 
Q 2906 1113 2906 1747 
Q 2906 2381 2643 2742 
Q 2381 3103 1925 3103 
Q 1469 3103 1208 2742 
Q 947 2381 947 1747 
z
M 2906 525 
Q 2725 213 2448 61 
Q 2172 -91 1784 -91 
Q 1150 -91 751 415 
Q 353 922 353 1747 
Q 353 2572 751 3078 
Q 1150 3584 1784 3584 
Q 2172 3584 2448 3432 
Q 2725 3281 2906 2969 
L 2906 3500 
L 3481 3500 
L 3481 -1331 
L 2906 -1331 
L 2906 525 
z
" transform="scale(0.015625)"/>
       <path id="DejaVuSans-75" d="M 544 1381 
L 544 3500 
L 1119 3500 
L 1119 1403 
Q 1119 906 1312 657 
Q 1506 409 1894 409 
Q 2359 409 2629 706 
Q 2900 1003 2900 1516 
L 2900 3500 
L 3475 3500 
L 3475 0 
L 2900 0 
L 2900 538 
Q 2691 219 2414 64 
Q 2138 -91 1772 -91 
Q 1169 -91 856 284 
Q 544 659 544 1381 
z
M 1991 3584 
L 1991 3584 
z
" transform="scale(0.015625)"/>
       <path id="DejaVuSans-28" d="M 1984 4856 
Q 1566 4138 1362 3434 
Q 1159 2731 1159 2009 
Q 1159 1288 1364 580 
Q 1569 -128 1984 -844 
L 1484 -844 
Q 1016 -109 783 600 
Q 550 1309 550 2009 
Q 550 2706 781 3412 
Q 1013 4119 1484 4856 
L 1984 4856 
z
" transform="scale(0.015625)"/>
       <path id="DejaVuSans-b2" d="M 838 2444 
L 2163 2444 
L 2163 2088 
L 294 2088 
L 294 2431 
Q 400 2528 597 2703 
Q 1672 3656 1672 3950 
Q 1672 4156 1509 4282 
Q 1347 4409 1081 4409 
Q 919 4409 728 4354 
Q 538 4300 313 4191 
L 313 4575 
Q 553 4663 761 4706 
Q 969 4750 1147 4750 
Q 1600 4750 1872 4544 
Q 2144 4338 2144 4000 
Q 2144 3566 1109 2678 
Q 934 2528 838 2444 
z
" transform="scale(0.015625)"/>
       <path id="DejaVuSans-29" d="M 513 4856 
L 1013 4856 
Q 1481 4119 1714 3412 
Q 1947 2706 1947 2009 
Q 1947 1309 1714 600 
Q 1481 -109 1013 -844 
L 513 -844 
Q 928 -128 1133 580 
Q 1338 1288 1338 2009 
Q 1338 2731 1133 3434 
Q 928 4138 513 4856 
z
" transform="scale(0.015625)"/>
      </defs>
      <use xlink:href="#DejaVuSans-52"/>
      <use xlink:href="#DejaVuSans-2d" transform="translate(65.482422 0)"/>
      <use xlink:href="#DejaVuSans-73" transform="translate(101.566406 0)"/>
      <use xlink:href="#DejaVuSans-71" transform="translate(153.666016 0)"/>
      <use xlink:href="#DejaVuSans-75" transform="translate(217.142578 0)"/>
      <use xlink:href="#DejaVuSans-61" transform="translate(280.521484 0)"/>
      <use xlink:href="#DejaVuSans-72" transform="translate(341.800781 0)"/>
      <use xlink:href="#DejaVuSans-65" transform="translate(380.664062 0)"/>
      <use xlink:href="#DejaVuSans-64" transform="translate(442.1875 0)"/>
      <use xlink:href="#DejaVuSans-20" transform="translate(505.664062 0)"/>
      <use xlink:href="#DejaVuSans-28" transform="translate(537.451172 0)"/>
      <use xlink:href="#DejaVuSans-52" transform="translate(576.464844 0)"/>
      <use xlink:href="#DejaVuSans-b2" transform="translate(645.947266 0)"/>
      <use xlink:href="#DejaVuSans-29" transform="translate(686.035156 0)"/>
     </g>
    </g>
    <g id="patch_27">
     <path d="M 443.907018 55.52625 
L 457.907018 55.52625 
L 457.907018 50.62625 
L 443.907018 50.62625 
z
" style="fill: #45a778; stroke: #ffffff; stroke-linejoin: miter"/>
    </g>
    <g id="text_22">
     <!-- Root Mean Squared Error (RMSE) -->
     <g style="fill: #262626" transform="translate(463.507018 55.52625) scale(0.07 -0.07)">
      <defs>
       <path id="DejaVuSans-45" d="M 628 4666 
L 3578 4666 
L 3578 4134 
L 1259 4134 
L 1259 2753 
L 3481 2753 
L 3481 2222 
L 1259 2222 
L 1259 531 
L 3634 531 
L 3634 0 
L 628 0 
L 628 4666 
z
" transform="scale(0.015625)"/>
      </defs>
      <use xlink:href="#DejaVuSans-52"/>
      <use xlink:href="#DejaVuSans-6f" transform="translate(64.982422 0)"/>
      <use xlink:href="#DejaVuSans-6f" transform="translate(126.164062 0)"/>
      <use xlink:href="#DejaVuSans-74" transform="translate(187.345703 0)"/>
      <use xlink:href="#DejaVuSans-20" transform="translate(226.554688 0)"/>
      <use xlink:href="#DejaVuSans-4d" transform="translate(258.341797 0)"/>
      <use xlink:href="#DejaVuSans-65" transform="translate(344.621094 0)"/>
      <use xlink:href="#DejaVuSans-61" transform="translate(406.144531 0)"/>
      <use xlink:href="#DejaVuSans-6e" transform="translate(467.423828 0)"/>
      <use xlink:href="#DejaVuSans-20" transform="translate(530.802734 0)"/>
      <use xlink:href="#DejaVuSans-53" transform="translate(562.589844 0)"/>
      <use xlink:href="#DejaVuSans-71" transform="translate(626.066406 0)"/>
      <use xlink:href="#DejaVuSans-75" transform="translate(689.542969 0)"/>
      <use xlink:href="#DejaVuSans-61" transform="translate(752.921875 0)"/>
      <use xlink:href="#DejaVuSans-72" transform="translate(814.201172 0)"/>
      <use xlink:href="#DejaVuSans-65" transform="translate(853.064453 0)"/>
      <use xlink:href="#DejaVuSans-64" transform="translate(914.587891 0)"/>
      <use xlink:href="#DejaVuSans-20" transform="translate(978.064453 0)"/>
      <use xlink:href="#DejaVuSans-45" transform="translate(1009.851562 0)"/>
      <use xlink:href="#DejaVuSans-72" transform="translate(1073.035156 0)"/>
      <use xlink:href="#DejaVuSans-72" transform="translate(1112.398438 0)"/>
      <use xlink:href="#DejaVuSans-6f" transform="translate(1151.261719 0)"/>
      <use xlink:href="#DejaVuSans-72" transform="translate(1212.443359 0)"/>
      <use xlink:href="#DejaVuSans-20" transform="translate(1253.556641 0)"/>
      <use xlink:href="#DejaVuSans-28" transform="translate(1285.34375 0)"/>
      <use xlink:href="#DejaVuSans-52" transform="translate(1324.357422 0)"/>
      <use xlink:href="#DejaVuSans-4d" transform="translate(1393.839844 0)"/>
      <use xlink:href="#DejaVuSans-53" transform="translate(1480.119141 0)"/>
      <use xlink:href="#DejaVuSans-45" transform="translate(1543.595703 0)"/>
      <use xlink:href="#DejaVuSans-29" transform="translate(1606.779297 0)"/>
     </g>
    </g>
   </g>
  </g>
 </g>
 <defs>
  <clipPath id="p41f2b12067">
   <rect x="117.156719" y="18.518906" width="467.858268" height="353.716535"/>
  </clipPath>
 </defs>
</svg>
